<svg width="192" height="192" viewBox="0 0 192 192" fill="none" xmlns="http://www.w3.org/2000/svg">
  <rect width="192" height="192" rx="40" fill="#065F46"/>
  <path d="M96 40C65.0721 40 40 65.0721 40 96C40 126.928 65.0721 152 96 152C126.928 152 152 126.928 152 96C152 65.0721 126.928 40 96 40ZM96 136C73.9086 136 56 118.091 56 96C56 73.9086 73.9086 56 96 56C118.091 56 136 73.9086 136 96C136 118.091 118.091 136 96 136Z" fill="#FBBF24"/>
  <path d="M110 80L100 110L90 80L110 80Z" fill="#FBBF24"/>
</svg>
